<svg width="360" height="422" viewBox="0 0 360 422" fill="none" xmlns="http://www.w3.org/2000/svg">
<rect width="360" height="422" fill="url(#paint0_linear_1_825)"/>
<mask id="mask0_1_825" style="mask-type:alpha" maskUnits="userSpaceOnUse" x="0" y="0" width="360" height="400">
<rect width="360" height="400" fill="#D9D9D9"/>
</mask>
<g mask="url(#mask0_1_825)">
<g filter="url(#filter0_d_1_825)">
<path d="M182.798 377.564C183.987 380.536 187.386 382.015 190.172 380.439C196.473 376.873 201.803 371.757 205.632 365.539C210.478 357.666 212.662 348.444 211.861 339.234C211.06 330.025 207.316 321.317 201.184 314.4C195.051 307.483 186.855 302.723 177.807 300.825C168.76 298.927 159.342 299.991 150.946 303.859C142.55 307.728 135.623 314.196 131.187 322.307C126.752 330.418 125.045 339.74 126.318 348.897C127.324 356.13 130.148 362.956 134.485 368.754C136.402 371.318 140.109 371.329 142.392 369.085C144.675 366.841 144.653 363.194 142.865 360.538C140.206 356.589 138.463 352.065 137.801 347.3C136.87 340.609 138.117 333.796 141.359 327.869C144.6 321.942 149.662 317.215 155.798 314.388C161.933 311.561 168.815 310.784 175.427 312.171C182.038 313.558 188.028 317.036 192.509 322.091C196.991 327.146 199.727 333.509 200.312 340.239C200.897 346.969 199.301 353.708 195.76 359.461C193.237 363.558 189.823 367 185.801 369.547C183.096 371.26 181.61 374.591 182.798 377.564Z" fill="url(#paint1_linear_1_825)" fill-opacity="0.4" shape-rendering="crispEdges"/>
</g>
<g filter="url(#filter1_d_1_825)">
<path d="M112.946 125.98C121.774 148.061 111.031 173.118 88.9503 181.946C66.8697 190.774 41.8131 180.031 32.9849 157.95C24.1567 135.869 34.8999 110.813 56.9806 101.985C79.0613 93.1564 104.118 103.9 112.946 125.98ZM43.7492 153.646C50.2005 169.782 68.5109 177.633 84.6466 171.182C100.782 164.73 108.633 146.42 102.182 130.284C95.7305 114.148 77.4201 106.298 61.2843 112.749C45.1486 119.2 37.2979 137.511 43.7492 153.646Z" fill="url(#paint2_linear_1_825)" fill-opacity="0.2" shape-rendering="crispEdges"/>
</g>
<g filter="url(#filter2_d_1_825)">
<path d="M19.6728 226.024C23.2531 223.621 24.2432 218.727 21.381 215.502C16.4877 209.988 10.5715 205.439 3.93494 202.121C-5.03807 197.635 -15.0212 195.554 -25.0392 196.079C-35.0572 196.605 -44.7676 199.72 -53.2219 205.12C-61.6762 210.521 -68.5852 218.021 -73.2742 226.89C-77.9633 235.758 -80.2718 245.691 -79.9745 255.719C-79.6772 265.746 -76.7841 275.525 -71.5779 284.1C-66.3717 292.675 -59.0303 299.753 -50.271 304.643C-43.7924 308.26 -36.7019 310.588 -29.39 311.527C-25.1129 312.076 -21.6261 308.503 -21.6557 304.191C-21.6852 299.879 -25.2333 296.48 -29.4779 295.719C-34.0848 294.893 -38.5412 293.307 -42.6593 291.008C-49.0604 287.435 -54.4251 282.262 -58.2297 275.996C-62.0342 269.73 -64.1483 262.584 -64.3656 255.256C-64.5828 247.928 -62.8958 240.67 -59.4693 234.189C-56.0427 227.708 -50.9938 222.227 -44.8158 218.281C-38.6377 214.334 -31.5417 212.058 -24.2209 211.674C-16.9001 211.29 -9.60487 212.811 -3.04773 216.089C1.1708 218.198 4.99102 220.987 8.26741 224.33C11.286 227.409 16.0926 228.428 19.6728 226.024Z" fill="url(#paint3_linear_1_825)" fill-opacity="0.4" shape-rendering="crispEdges"/>
</g>
<g filter="url(#filter3_d_1_825)">
<path d="M248.518 97.1661C252.481 98.8654 257.127 97.037 258.279 92.8816C260.5 84.8708 260.981 76.4452 259.651 68.1778C257.907 57.3303 253.117 47.2014 245.84 38.9703C238.563 30.7391 229.097 24.7441 218.545 21.6833C207.993 18.6225 196.789 18.6218 186.237 21.6811C175.684 24.7405 166.218 30.7341 158.94 38.9643C151.661 47.1945 146.87 57.3227 145.124 68.1699C143.378 79.0171 144.749 90.1372 149.077 100.236C152.376 107.932 157.289 114.794 163.45 120.375C166.646 123.269 171.55 122.329 173.99 118.773C176.429 115.218 175.46 110.401 172.411 107.351C168.618 103.557 165.563 99.059 163.43 94.084C160.267 86.7044 159.266 78.5783 160.542 70.6515C161.818 62.7248 165.319 55.3235 170.637 49.3092C175.956 43.2949 182.874 38.915 190.585 36.6793C198.296 34.4436 206.484 34.4442 214.195 36.6809C221.906 38.9176 228.823 43.2985 234.141 49.3135C239.459 55.3286 242.959 62.7304 244.234 70.6573C245.093 76.0014 244.917 81.4359 243.742 86.671C242.798 90.8785 244.555 95.4669 248.518 97.1661Z" fill="url(#paint4_linear_1_825)" fill-opacity="0.4" shape-rendering="crispEdges"/>
</g>
<g filter="url(#filter4_d_1_825)">
<path d="M322.362 178.142L415.861 214.885L337.291 277.485L322.362 178.142Z" fill="url(#paint5_linear_1_825)" fill-opacity="0.4" shape-rendering="crispEdges"/>
</g>
<g filter="url(#filter5_d_1_825)">
<path d="M63.7044 270.868L68.2067 336.532L9.08906 307.599L63.7044 270.868Z" fill="url(#paint6_linear_1_825)" fill-opacity="0.2" shape-rendering="crispEdges"/>
</g>
<g filter="url(#filter6_d_1_825)">
<path d="M234 268H290V324H234V268Z" fill="url(#paint7_linear_1_825)" fill-opacity="0.2" shape-rendering="crispEdges"/>
</g>
<g filter="url(#filter7_d_1_825)">
<path d="M268 135L275.858 159.184L301.287 159.184L280.714 174.131L288.572 198.315L268 183.369L247.428 198.315L255.286 174.131L234.713 159.184L260.142 159.184L268 135Z" fill="url(#paint8_linear_1_825)" fill-opacity="0.2" shape-rendering="crispEdges"/>
</g>
</g>
<defs>
<filter id="filter0_d_1_825" x="121.908" y="299.907" width="94.1155" height="89.1712" filterUnits="userSpaceOnUse" color-interpolation-filters="sRGB">
<feFlood flood-opacity="0" result="BackgroundImageFix"/>
<feColorMatrix in="SourceAlpha" type="matrix" values="0 0 0 0 0 0 0 0 0 0 0 0 0 0 0 0 0 0 127 0" result="hardAlpha"/>
<feOffset dy="4"/>
<feGaussianBlur stdDeviation="2"/>
<feComposite in2="hardAlpha" operator="out"/>
<feColorMatrix type="matrix" values="0 0 0 0 0 0 0 0 0 0 0 0 0 0 0 0 0 0 0.25 0"/>
<feBlend mode="normal" in2="BackgroundImageFix" result="effect1_dropShadow_1_825"/>
<feBlend mode="normal" in="SourceGraphic" in2="effect1_dropShadow_1_825" result="shape"/>
</filter>
<filter id="filter1_d_1_825" x="25.8963" y="98.8961" width="94.1383" height="94.1383" filterUnits="userSpaceOnUse" color-interpolation-filters="sRGB">
<feFlood flood-opacity="0" result="BackgroundImageFix"/>
<feColorMatrix in="SourceAlpha" type="matrix" values="0 0 0 0 0 0 0 0 0 0 0 0 0 0 0 0 0 0 127 0" result="hardAlpha"/>
<feOffset dy="4"/>
<feGaussianBlur stdDeviation="2"/>
<feComposite in2="hardAlpha" operator="out"/>
<feColorMatrix type="matrix" values="0 0 0 0 0 0 0 0 0 0 0 0 0 0 0 0 0 0 0.25 0"/>
<feBlend mode="normal" in2="BackgroundImageFix" result="effect1_dropShadow_1_825"/>
<feBlend mode="normal" in="SourceGraphic" in2="effect1_dropShadow_1_825" result="shape"/>
</filter>
<filter id="filter2_d_1_825" x="-84" y="196" width="111.047" height="123.583" filterUnits="userSpaceOnUse" color-interpolation-filters="sRGB">
<feFlood flood-opacity="0" result="BackgroundImageFix"/>
<feColorMatrix in="SourceAlpha" type="matrix" values="0 0 0 0 0 0 0 0 0 0 0 0 0 0 0 0 0 0 127 0" result="hardAlpha"/>
<feOffset dy="4"/>
<feGaussianBlur stdDeviation="2"/>
<feComposite in2="hardAlpha" operator="out"/>
<feColorMatrix type="matrix" values="0 0 0 0 0 0 0 0 0 0 0 0 0 0 0 0 0 0 0.25 0"/>
<feBlend mode="normal" in2="BackgroundImageFix" result="effect1_dropShadow_1_825"/>
<feBlend mode="normal" in="SourceGraphic" in2="effect1_dropShadow_1_825" result="shape"/>
</filter>
<filter id="filter3_d_1_825" x="140.387" y="19.3872" width="124" height="110.699" filterUnits="userSpaceOnUse" color-interpolation-filters="sRGB">
<feFlood flood-opacity="0" result="BackgroundImageFix"/>
<feColorMatrix in="SourceAlpha" type="matrix" values="0 0 0 0 0 0 0 0 0 0 0 0 0 0 0 0 0 0 127 0" result="hardAlpha"/>
<feOffset dy="4"/>
<feGaussianBlur stdDeviation="2"/>
<feComposite in2="hardAlpha" operator="out"/>
<feColorMatrix type="matrix" values="0 0 0 0 0 0 0 0 0 0 0 0 0 0 0 0 0 0 0.25 0"/>
<feBlend mode="normal" in2="BackgroundImageFix" result="effect1_dropShadow_1_825"/>
<feBlend mode="normal" in="SourceGraphic" in2="effect1_dropShadow_1_825" result="shape"/>
</filter>
<filter id="filter4_d_1_825" x="318.362" y="178.142" width="101.498" height="107.344" filterUnits="userSpaceOnUse" color-interpolation-filters="sRGB">
<feFlood flood-opacity="0" result="BackgroundImageFix"/>
<feColorMatrix in="SourceAlpha" type="matrix" values="0 0 0 0 0 0 0 0 0 0 0 0 0 0 0 0 0 0 127 0" result="hardAlpha"/>
<feOffset dy="4"/>
<feGaussianBlur stdDeviation="2"/>
<feComposite in2="hardAlpha" operator="out"/>
<feColorMatrix type="matrix" values="0 0 0 0 0 0 0 0 0 0 0 0 0 0 0 0 0 0 0.25 0"/>
<feBlend mode="normal" in2="BackgroundImageFix" result="effect1_dropShadow_1_825"/>
<feBlend mode="normal" in="SourceGraphic" in2="effect1_dropShadow_1_825" result="shape"/>
</filter>
<filter id="filter5_d_1_825" x="5.08905" y="270.868" width="67.1177" height="73.6638" filterUnits="userSpaceOnUse" color-interpolation-filters="sRGB">
<feFlood flood-opacity="0" result="BackgroundImageFix"/>
<feColorMatrix in="SourceAlpha" type="matrix" values="0 0 0 0 0 0 0 0 0 0 0 0 0 0 0 0 0 0 127 0" result="hardAlpha"/>
<feOffset dy="4"/>
<feGaussianBlur stdDeviation="2"/>
<feComposite in2="hardAlpha" operator="out"/>
<feColorMatrix type="matrix" values="0 0 0 0 0 0 0 0 0 0 0 0 0 0 0 0 0 0 0.25 0"/>
<feBlend mode="normal" in2="BackgroundImageFix" result="effect1_dropShadow_1_825"/>
<feBlend mode="normal" in="SourceGraphic" in2="effect1_dropShadow_1_825" result="shape"/>
</filter>
<filter id="filter6_d_1_825" x="230" y="268" width="64" height="64" filterUnits="userSpaceOnUse" color-interpolation-filters="sRGB">
<feFlood flood-opacity="0" result="BackgroundImageFix"/>
<feColorMatrix in="SourceAlpha" type="matrix" values="0 0 0 0 0 0 0 0 0 0 0 0 0 0 0 0 0 0 127 0" result="hardAlpha"/>
<feOffset dy="4"/>
<feGaussianBlur stdDeviation="2"/>
<feComposite in2="hardAlpha" operator="out"/>
<feColorMatrix type="matrix" values="0 0 0 0 0 0 0 0 0 0 0 0 0 0 0 0 0 0 0.25 0"/>
<feBlend mode="normal" in2="BackgroundImageFix" result="effect1_dropShadow_1_825"/>
<feBlend mode="normal" in="SourceGraphic" in2="effect1_dropShadow_1_825" result="shape"/>
</filter>
<filter id="filter7_d_1_825" x="230.713" y="135" width="74.574" height="71.3156" filterUnits="userSpaceOnUse" color-interpolation-filters="sRGB">
<feFlood flood-opacity="0" result="BackgroundImageFix"/>
<feColorMatrix in="SourceAlpha" type="matrix" values="0 0 0 0 0 0 0 0 0 0 0 0 0 0 0 0 0 0 127 0" result="hardAlpha"/>
<feOffset dy="4"/>
<feGaussianBlur stdDeviation="2"/>
<feComposite in2="hardAlpha" operator="out"/>
<feColorMatrix type="matrix" values="0 0 0 0 0 0 0 0 0 0 0 0 0 0 0 0 0 0 0.25 0"/>
<feBlend mode="normal" in2="BackgroundImageFix" result="effect1_dropShadow_1_825"/>
<feBlend mode="normal" in="SourceGraphic" in2="effect1_dropShadow_1_825" result="shape"/>
</filter>
<linearGradient id="paint0_linear_1_825" x1="180" y1="0" x2="180" y2="422" gradientUnits="userSpaceOnUse">
<stop stop-color="#CC63D7" stop-opacity="0.81"/>
<stop offset="1" stop-color="#9263D7"/>
</linearGradient>
<linearGradient id="paint1_linear_1_825" x1="152.981" y1="302.985" x2="184.95" y2="382.946" gradientUnits="userSpaceOnUse">
<stop stop-color="white"/>
<stop offset="1" stop-color="white" stop-opacity="0"/>
</linearGradient>
<linearGradient id="paint2_linear_1_825" x1="56.9806" y1="101.985" x2="88.9503" y2="181.946" gradientUnits="userSpaceOnUse">
<stop stop-color="white"/>
<stop offset="1" stop-color="white" stop-opacity="0"/>
</linearGradient>
<linearGradient id="paint3_linear_1_825" x1="-96" y1="208" x2="56.5" y2="285" gradientUnits="userSpaceOnUse">
<stop stop-color="white"/>
<stop offset="1" stop-color="white" stop-opacity="0"/>
</linearGradient>
<linearGradient id="paint4_linear_1_825" x1="180.855" y1="23.5321" x2="223.919" y2="131.242" gradientUnits="userSpaceOnUse">
<stop stop-color="white"/>
<stop offset="1" stop-color="white" stop-opacity="0"/>
</linearGradient>
<linearGradient id="paint5_linear_1_825" x1="322.362" y1="178.142" x2="394.647" y2="268.867" gradientUnits="userSpaceOnUse">
<stop stop-color="white"/>
<stop offset="1" stop-color="white" stop-opacity="0"/>
</linearGradient>
<linearGradient id="paint6_linear_1_825" x1="63.7044" y1="270.868" x2="30.2957" y2="339.131" gradientUnits="userSpaceOnUse">
<stop stop-color="white"/>
<stop offset="1" stop-color="white" stop-opacity="0"/>
</linearGradient>
<linearGradient id="paint7_linear_1_825" x1="262" y1="268" x2="262" y2="324" gradientUnits="userSpaceOnUse">
<stop stop-color="white"/>
<stop offset="1" stop-color="white" stop-opacity="0"/>
</linearGradient>
<linearGradient id="paint8_linear_1_825" x1="268" y1="135" x2="268" y2="205" gradientUnits="userSpaceOnUse">
<stop stop-color="white"/>
<stop offset="1" stop-color="#D9D9D9" stop-opacity="0"/>
</linearGradient>
</defs>
</svg>
