<svg width="160" height="32" viewBox="0 0 160 32" fill="none" xmlns="http://www.w3.org/2000/svg">
<path d="M47.856 10.952C47.808 10.872 47.64 10.752 47.352 10.592C47.064 10.416 46.704 10.232 46.272 10.04C45.84 9.848 45.368 9.68 44.856 9.536C44.344 9.392 43.832 9.32 43.32 9.32C42.648 9.32 42.128 9.44 41.76 9.68C41.392 9.904 41.208 10.256 41.208 10.736C41.208 11.12 41.344 11.424 41.616 11.648C41.904 11.872 42.312 12.072 42.84 12.248C43.368 12.408 44.016 12.6 44.784 12.824C45.872 13.112 46.816 13.464 47.616 13.88C48.416 14.28 49.024 14.8 49.44 15.44C49.872 16.08 50.088 16.928 50.088 17.984C50.088 18.944 49.912 19.76 49.56 20.432C49.208 21.088 48.728 21.624 48.12 22.04C47.528 22.44 46.848 22.736 46.08 22.928C45.312 23.104 44.52 23.192 43.704 23.192C42.872 23.192 42.016 23.112 41.136 22.952C40.272 22.776 39.44 22.536 38.64 22.232C37.84 21.912 37.104 21.528 36.432 21.08L38.16 17.648C38.224 17.728 38.432 17.88 38.784 18.104C39.136 18.312 39.568 18.536 40.08 18.776C40.608 19 41.192 19.2 41.832 19.376C42.472 19.552 43.12 19.64 43.776 19.64C44.48 19.64 45 19.528 45.336 19.304C45.688 19.08 45.864 18.768 45.864 18.368C45.864 17.936 45.68 17.6 45.312 17.36C44.96 17.12 44.472 16.904 43.848 16.712C43.24 16.52 42.536 16.304 41.736 16.064C40.696 15.744 39.832 15.384 39.144 14.984C38.472 14.584 37.968 14.096 37.632 13.52C37.312 12.944 37.152 12.224 37.152 11.36C37.152 10.16 37.432 9.152 37.992 8.336C38.568 7.504 39.336 6.88 40.296 6.464C41.256 6.032 42.304 5.816 43.44 5.816C44.24 5.816 45.008 5.912 45.744 6.104C46.496 6.296 47.192 6.536 47.832 6.824C48.488 7.112 49.072 7.4 49.584 7.688L47.856 10.952ZM58.1096 23.24C57.0376 23.24 56.0856 23.064 55.2536 22.712C54.4216 22.36 53.7096 21.88 53.1176 21.272C52.5416 20.664 52.1016 19.968 51.7976 19.184C51.4936 18.4 51.3416 17.568 51.3416 16.688C51.3416 15.536 51.6056 14.464 52.1336 13.472C52.6776 12.48 53.4536 11.68 54.4616 11.072C55.4696 10.464 56.6856 10.16 58.1096 10.16C59.5496 10.16 60.7656 10.472 61.7576 11.096C62.7656 11.704 63.5176 12.504 64.0136 13.496L60.2696 14.624C60.0296 14.24 59.7176 13.944 59.3336 13.736C58.9656 13.528 58.5496 13.424 58.0856 13.424C57.5576 13.424 57.0776 13.56 56.6456 13.832C56.2296 14.104 55.8936 14.48 55.6376 14.96C55.3976 15.44 55.2776 16.016 55.2776 16.688C55.2776 17.344 55.4056 17.92 55.6616 18.416C55.9176 18.912 56.2536 19.304 56.6696 19.592C57.0856 19.864 57.5576 20 58.0856 20C58.4056 20 58.7016 19.952 58.9736 19.856C59.2616 19.744 59.5176 19.592 59.7416 19.4C59.9816 19.208 60.1656 18.992 60.2936 18.752L64.0376 19.904C63.7336 20.544 63.2936 21.12 62.7176 21.632C62.1576 22.128 61.4936 22.52 60.7256 22.808C59.9576 23.096 59.0856 23.24 58.1096 23.24ZM77.9171 23H74.0771V15.92C74.0771 15.104 73.9091 14.504 73.5731 14.12C73.2531 13.736 72.8211 13.544 72.2771 13.544C71.9891 13.544 71.6611 13.64 71.2931 13.832C70.9411 14.008 70.6131 14.264 70.3091 14.6C70.0051 14.936 69.7731 15.328 69.6131 15.776V23H65.7731V5.48H69.6131V12.512C70.0771 11.76 70.6851 11.184 71.4371 10.784C72.2051 10.368 73.0451 10.16 73.9571 10.16C74.8211 10.16 75.5091 10.304 76.0211 10.592C76.5491 10.88 76.9491 11.264 77.2211 11.744C77.4931 12.208 77.6771 12.72 77.7731 13.28C77.8691 13.84 77.9171 14.392 77.9171 14.936V23ZM86.4684 23.24C85.3964 23.24 84.4364 23.064 83.5884 22.712C82.7564 22.36 82.0524 21.88 81.4764 21.272C80.9004 20.664 80.4604 19.968 80.1564 19.184C79.8684 18.4 79.7244 17.576 79.7244 16.712C79.7244 15.832 79.8684 15 80.1564 14.216C80.4604 13.432 80.9004 12.736 81.4764 12.128C82.0524 11.52 82.7564 11.04 83.5884 10.688C84.4364 10.336 85.3964 10.16 86.4684 10.16C87.5404 10.16 88.4924 10.336 89.3244 10.688C90.1564 11.04 90.8604 11.52 91.4364 12.128C92.0124 12.736 92.4524 13.432 92.7564 14.216C93.0604 15 93.2124 15.832 93.2124 16.712C93.2124 17.576 93.0604 18.4 92.7564 19.184C92.4524 19.968 92.0124 20.664 91.4364 21.272C90.8604 21.88 90.1564 22.36 89.3244 22.712C88.4924 23.064 87.5404 23.24 86.4684 23.24ZM83.6604 16.712C83.6604 17.368 83.7804 17.944 84.0204 18.44C84.2764 18.936 84.6124 19.32 85.0284 19.592C85.4444 19.864 85.9244 20 86.4684 20C86.9964 20 87.4684 19.864 87.8844 19.592C88.3164 19.304 88.6524 18.912 88.8924 18.416C89.1324 17.92 89.2524 17.352 89.2524 16.712C89.2524 16.056 89.1324 15.48 88.8924 14.984C88.6524 14.488 88.3164 14.104 87.8844 13.832C87.4684 13.56 86.9964 13.424 86.4684 13.424C85.9244 13.424 85.4444 13.56 85.0284 13.832C84.6124 14.104 84.2764 14.488 84.0204 14.984C83.7804 15.48 83.6604 16.056 83.6604 16.712ZM101.117 23.24C100.045 23.24 99.0849 23.064 98.2369 22.712C97.4049 22.36 96.7009 21.88 96.1249 21.272C95.5489 20.664 95.1089 19.968 94.8049 19.184C94.5169 18.4 94.3729 17.576 94.3729 16.712C94.3729 15.832 94.5169 15 94.8049 14.216C95.1089 13.432 95.5489 12.736 96.1249 12.128C96.7009 11.52 97.4049 11.04 98.2369 10.688C99.0849 10.336 100.045 10.16 101.117 10.16C102.189 10.16 103.141 10.336 103.973 10.688C104.805 11.04 105.509 11.52 106.085 12.128C106.661 12.736 107.101 13.432 107.405 14.216C107.709 15 107.861 15.832 107.861 16.712C107.861 17.576 107.709 18.4 107.405 19.184C107.101 19.968 106.661 20.664 106.085 21.272C105.509 21.88 104.805 22.36 103.973 22.712C103.141 23.064 102.189 23.24 101.117 23.24ZM98.3089 16.712C98.3089 17.368 98.4289 17.944 98.6689 18.44C98.9249 18.936 99.2609 19.32 99.6769 19.592C100.093 19.864 100.573 20 101.117 20C101.645 20 102.117 19.864 102.533 19.592C102.965 19.304 103.301 18.912 103.541 18.416C103.781 17.92 103.901 17.352 103.901 16.712C103.901 16.056 103.781 15.48 103.541 14.984C103.301 14.488 102.965 14.104 102.533 13.832C102.117 13.56 101.645 13.424 101.117 13.424C100.573 13.424 100.093 13.56 99.6769 13.832C99.2609 14.104 98.9249 14.488 98.6689 14.984C98.4289 15.48 98.3089 16.056 98.3089 16.712ZM109.717 5.48H113.557V18.512C113.557 19.04 113.653 19.416 113.845 19.64C114.037 19.864 114.309 19.976 114.661 19.976C114.901 19.976 115.141 19.944 115.381 19.88C115.637 19.8 115.861 19.712 116.053 19.616L116.557 22.496C116.077 22.72 115.525 22.896 114.901 23.024C114.277 23.152 113.693 23.216 113.149 23.216C112.061 23.216 111.213 22.928 110.605 22.352C110.013 21.76 109.717 20.928 109.717 19.856V5.48ZM118.62 23V5.96H125.676C126.412 5.96 127.084 6.112 127.692 6.416C128.316 6.72 128.852 7.136 129.3 7.664C129.748 8.176 130.1 8.752 130.356 9.392C130.612 10.016 130.74 10.656 130.74 11.312C130.74 12.24 130.532 13.12 130.116 13.952C129.716 14.768 129.148 15.432 128.412 15.944C127.676 16.456 126.812 16.712 125.82 16.712H120.3V23H118.62ZM120.3 15.224H125.748C126.42 15.224 127.004 15.04 127.5 14.672C127.996 14.304 128.38 13.824 128.652 13.232C128.924 12.64 129.06 12 129.06 11.312C129.06 10.608 128.9 9.96 128.58 9.368C128.26 8.776 127.836 8.312 127.308 7.976C126.796 7.624 126.228 7.448 125.604 7.448H120.3V15.224ZM138.38 23.24C137.484 23.24 136.652 23.072 135.884 22.736C135.116 22.384 134.452 21.912 133.892 21.32C133.332 20.712 132.892 20.016 132.572 19.232C132.268 18.448 132.116 17.608 132.116 16.712C132.116 15.544 132.38 14.472 132.908 13.496C133.452 12.52 134.196 11.744 135.14 11.168C136.084 10.576 137.156 10.28 138.356 10.28C139.588 10.28 140.66 10.576 141.572 11.168C142.5 11.76 143.228 12.544 143.756 13.52C144.284 14.48 144.548 15.536 144.548 16.688C144.548 16.816 144.548 16.944 144.548 17.072C144.548 17.184 144.54 17.272 144.524 17.336H133.82C133.9 18.232 134.148 19.032 134.564 19.736C134.996 20.424 135.548 20.976 136.22 21.392C136.908 21.792 137.652 21.992 138.452 21.992C139.268 21.992 140.036 21.784 140.756 21.368C141.492 20.952 142.004 20.408 142.292 19.736L143.708 20.12C143.452 20.712 143.06 21.248 142.532 21.728C142.004 22.208 141.38 22.584 140.66 22.856C139.956 23.112 139.196 23.24 138.38 23.24ZM133.772 16.16H143.012C142.948 15.248 142.7 14.448 142.268 13.76C141.852 13.072 141.3 12.536 140.612 12.152C139.94 11.752 139.196 11.552 138.38 11.552C137.564 11.552 136.82 11.752 136.148 12.152C135.476 12.536 134.924 13.08 134.492 13.784C134.076 14.472 133.836 15.264 133.772 16.16ZM157.578 23H155.946V16.016C155.946 14.544 155.73 13.472 155.298 12.8C154.866 12.112 154.186 11.768 153.258 11.768C152.618 11.768 151.986 11.928 151.362 12.248C150.738 12.552 150.186 12.976 149.706 13.52C149.242 14.048 148.906 14.656 148.698 15.344V23H147.066V10.496H148.554V13.328C148.89 12.72 149.33 12.192 149.874 11.744C150.418 11.28 151.034 10.92 151.722 10.664C152.41 10.408 153.122 10.28 153.858 10.28C154.546 10.28 155.13 10.408 155.61 10.664C156.09 10.92 156.474 11.288 156.762 11.768C157.05 12.232 157.258 12.8 157.386 13.472C157.514 14.128 157.578 14.864 157.578 15.68V23Z" fill="#9163D7"/>
<circle cx="10.6039" cy="29.8483" r="1.57097" fill="#7B57EC"/>
<path d="M11.0351 3.89584C4.97871 6.05731 1.74788 12.7631 3.85675 18.8482C4.96278 22.0395 7.29899 24.4503 10.1419 25.7369C10.6367 25.9615 11.1734 25.5254 11.0611 24.9911C10.7675 23.6025 10.5956 21.4527 11.198 18.6801C11.4935 17.3375 12.131 14.6362 15.3902 11.1096C17.6356 8.74731 19.9372 7.72035 19.0224 12.5084C17.4096 20.9358 14.5344 24.5482 12.8947 25.9814C12.6542 26.1898 12.7678 26.5778 13.0767 26.627C14.9895 26.9438 17.0027 26.7985 18.9594 26.0995C24.9879 23.9477 28.2102 17.3074 26.17 11.2402C24.0561 4.99016 17.2403 1.68277 11.0351 3.89584Z" fill="url(#paint0_linear_1_834)"/>
<defs>
<linearGradient id="paint0_linear_1_834" x1="18.8791" y1="29.2218" x2="12.7255" y2="4.48219" gradientUnits="userSpaceOnUse">
<stop stop-color="#7253F6"/>
<stop offset="1" stop-color="#9866CF"/>
</linearGradient>
</defs>
</svg>
